{
  "asset": {
    "generator": "Khronos glTF Blender I/O v3.6.27",
    "version": "2.0"
  },
  "extensionsUsed": ["KHR_materials_transmission", "KHR_materials_ior"],
  "scene": 0,
  "scenes": [
    {
      "name": "Scene",
      "nodes": [0, 1, 2, 3, 4]
    }
  ],
  "nodes": [
    {
      "mesh": 0,
      "name": "Ring",
      "rotation": [
        -0.49505630135536194, 0.5048953294754028, -0.5048953294754028,
        0.49505627155303955
      ],
      "scale": [0.7464461326599121, 0.5064995884895325, 0.7464461326599121],
      "translation": [-0.011791825294494629, 0.3142293393611908, 0]
    },
    {
      "mesh": 1,
      "name": "hearth",
      "rotation": [
        -0.0021892471704632044, 0.010923516936600208, -0.00658018235117197,
        0.9999163150787354
      ],
      "scale": [0.140044167637825, 0.17883561551570892, 0.140044167637825],
      "translation": [
        -0.003642778377979994, -0.15875503420829773, 0.0007520883809775114
      ]
    },
    {
      "name": "Empty",
      "rotation": [0, 0, -0.7071066498756409, 0.70710688829422],
      "translation": [0, 1.0102735757827759, 0]
    },
    {
      "mesh": 2,
      "name": "diamond",
      "rotation": [0, 0, 0.2186688333749771, 0.9757991433143616],
      "scale": [0.09419623762369156, 0.09419623762369156, 0.09419623762369156],
      "translation": [-0.4628249406814575, 0.980809211730957, 0]
    },
    {
      "mesh": 3,
      "name": "diamondContainer",
      "rotation": [
        -9.769293683348224e-5, -0.0009749131859280169, 0.22782306373119354,
        0.973702073097229
      ],
      "scale": [0.1138906329870224, 0.1138906329870224, 0.1138906329870224],
      "translation": [
        -0.4891137182712555, 0.9908965826034546, -0.0006987364613451064
      ]
    }
  ],
  "materials": [
    {
      "doubleSided": true,
      "name": "pinkgold",
      "pbrMetallicRoughness": {
        "baseColorFactor": [
          0.800000011920929, 0.5600000023841858, 0.5600000023841858, 1
        ],
        "roughnessFactor": 0
      }
    },
    {
      "doubleSided": true,
      "extensions": {
        "KHR_materials_transmission": {
          "transmissionFactor": 1
        },
        "KHR_materials_ior": {
          "ior": 2.0999999046325684
        }
      },
      "name": "diamond",
      "pbrMetallicRoughness": {
        "baseColorFactor": [
          0.800000011920929, 0.800000011920929, 0.800000011920929, 1
        ],
        "metallicFactor": 1,
        "roughnessFactor": 1
      }
    }
  ],
  "meshes": [
    {
      "name": "Circle",
      "primitives": [
        {
          "attributes": {
            "POSITION": 0,
            "NORMAL": 1,
            "TEXCOORD_0": 2
          },
          "indices": 3,
          "material": 0
        }
      ]
    },
    {
      "name": "Plane",
      "primitives": [
        {
          "attributes": {
            "POSITION": 4,
            "NORMAL": 5,
            "TEXCOORD_0": 6
          },
          "indices": 7,
          "material": 0
        }
      ]
    },
    {
      "name": "dmesh",
      "primitives": [
        {
          "attributes": {
            "POSITION": 8,
            "NORMAL": 9
          },
          "indices": 10,
          "material": 1
        }
      ]
    },
    {
      "name": "Cylinder",
      "primitives": [
        {
          "attributes": {
            "POSITION": 11,
            "NORMAL": 12,
            "TEXCOORD_0": 13
          },
          "indices": 14,
          "material": 0
        }
      ]
    }
  ],
  "accessors": [
    {
      "bufferView": 0,
      "componentType": 5126,
      "count": 2448,
      "max": [1.088814616203308, 0.09105230867862701, 1.088814616203308],
      "min": [-0.8721106648445129, -0.10095953196287155, -1.088814616203308],
      "type": "VEC3"
    },
    {
      "bufferView": 1,
      "componentType": 5126,
      "count": 2448,
      "type": "VEC3"
    },
    {
      "bufferView": 2,
      "componentType": 5126,
      "count": 2448,
      "type": "VEC2"
    },
    {
      "bufferView": 3,
      "componentType": 5123,
      "count": 14676,
      "type": "SCALAR"
    },
    {
      "bufferView": 4,
      "componentType": 5126,
      "count": 2016,
      "max": [3.7861363887786865, 7.210562705993652, 2.8768794536590576],
      "min": [-3.12235689163208, 5.781257152557373, -3.14810848236084],
      "type": "VEC3"
    },
    {
      "bufferView": 5,
      "componentType": 5126,
      "count": 2016,
      "type": "VEC3"
    },
    {
      "bufferView": 6,
      "componentType": 5126,
      "count": 2016,
      "type": "VEC2"
    },
    {
      "bufferView": 7,
      "componentType": 5123,
      "count": 12096,
      "type": "SCALAR"
    },
    {
      "bufferView": 8,
      "componentType": 5126,
      "count": 544,
      "max": [1, 0.3580000102519989, 1],
      "min": [-1, -0.8619999885559082, -1],
      "type": "VEC3"
    },
    {
      "bufferView": 9,
      "componentType": 5126,
      "count": 544,
      "type": "VEC3"
    },
    {
      "bufferView": 10,
      "componentType": 5123,
      "count": 906,
      "type": "SCALAR"
    },
    {
      "bufferView": 11,
      "componentType": 5126,
      "count": 7945,
      "max": [1.0793408155441284, 0.23839572072029114, 1.0790573358535767],
      "min": [-1.0787204504013062, -0.9945007562637329, -1.0790040493011475],
      "type": "VEC3"
    },
    {
      "bufferView": 12,
      "componentType": 5126,
      "count": 7945,
      "type": "VEC3"
    },
    {
      "bufferView": 13,
      "componentType": 5126,
      "count": 7945,
      "type": "VEC2"
    },
    {
      "bufferView": 14,
      "componentType": 5123,
      "count": 46080,
      "type": "SCALAR"
    }
  ],
  "bufferViews": [
    {
      "buffer": 0,
      "byteLength": 29376,
      "byteOffset": 0,
      "target": 34962
    },
    {
      "buffer": 0,
      "byteLength": 29376,
      "byteOffset": 29376,
      "target": 34962
    },
    {
      "buffer": 0,
      "byteLength": 19584,
      "byteOffset": 58752,
      "target": 34962
    },
    {
      "buffer": 0,
      "byteLength": 29352,
      "byteOffset": 78336,
      "target": 34963
    },
    {
      "buffer": 0,
      "byteLength": 24192,
      "byteOffset": 107688,
      "target": 34962
    },
    {
      "buffer": 0,
      "byteLength": 24192,
      "byteOffset": 131880,
      "target": 34962
    },
    {
      "buffer": 0,
      "byteLength": 16128,
      "byteOffset": 156072,
      "target": 34962
    },
    {
      "buffer": 0,
      "byteLength": 24192,
      "byteOffset": 172200,
      "target": 34963
    },
    {
      "buffer": 0,
      "byteLength": 6528,
      "byteOffset": 196392,
      "target": 34962
    },
    {
      "buffer": 0,
      "byteLength": 6528,
      "byteOffset": 202920,
      "target": 34962
    },
    {
      "buffer": 0,
      "byteLength": 1812,
      "byteOffset": 209448,
      "target": 34963
    },
    {
      "buffer": 0,
      "byteLength": 95340,
      "byteOffset": 211260,
      "target": 34962
    },
    {
      "buffer": 0,
      "byteLength": 95340,
      "byteOffset": 306600,
      "target": 34962
    },
    {
      "buffer": 0,
      "byteLength": 63560,
      "byteOffset": 401940,
      "target": 34962
    },
    {
      "buffer": 0,
      "byteLength": 92160,
      "byteOffset": 465500,
      "target": 34963
    }
  ],
  "buffers": [
    {
      "byteLength": 557660,
      "uri": "data:application/octet-stream;base64,"
    }
  ]
}
